<mxfile host="app.diagrams.net" modified="2024-05-08T08:54:31.540Z" agent="Mozilla/5.0 (Windows NT 10.0; Win64; x64) AppleWebKit/537.36 (KHTML, like Gecko) Chrome/123.0.0.0 Safari/537.36" version="24.0.4" etag="TnpOvYRkVJ7717mifJTm" type="github">
  <diagram name="第 1 页" id="T7B-ePHdW8VQtDKVVb_G">
    <mxGraphModel>
      <root>
        <mxCell id="0" />
        <mxCell id="1" parent="0" />
      </root>
    </mxGraphModel>
  </diagram>
</mxfile>
